<svg xmlns="http://www.w3.org/2000/svg" viewBox="0 0 512 512">
  <!-- Background -->
  <rect width="512" height="512" rx="108" fill="#0d0d0f"/>

  <!-- Drop shadow -->
  <rect x="96" y="100" width="272" height="322" rx="12" fill="#000" opacity="0.22"/>

  <!-- Notebook body (pages) -->
  <rect x="90" y="94" width="272" height="324" rx="14" fill="#ede8dd"/>

  <!-- Spine base -->
  <rect x="90" y="94" width="46" height="324" rx="12" fill="#c8905a"/>
  <!-- Flush right edge of spine -->
  <rect x="120" y="94" width="16" height="324" fill="#c8905a"/>

  <!-- Binding holes -->
  <circle cx="113" cy="168" r="5" fill="#1a0e06" opacity="0.42"/>
  <circle cx="113" cy="256" r="5" fill="#1a0e06" opacity="0.42"/>
  <circle cx="113" cy="344" r="5" fill="#1a0e06" opacity="0.42"/>

  <!-- Page lines -->
  <rect x="152" y="186" width="182" height="3" rx="1.5" fill="#1a0e06" opacity="0.11"/>
  <rect x="152" y="228" width="182" height="3" rx="1.5" fill="#1a0e06" opacity="0.11"/>
  <rect x="152" y="270" width="182" height="3" rx="1.5" fill="#1a0e06" opacity="0.11"/>
  <rect x="152" y="312" width="124" height="3" rx="1.5" fill="#1a0e06" opacity="0.11"/>

  <!-- Bookmark ribbon (amber) -->
  <path d="M310 94 L338 94 L338 150 L324 138 L310 150 Z" fill="#c8905a" opacity="0.86"/>
</svg>
